<svg xmlns="http://www.w3.org/2000/svg" width="26" height="28" viewBox="0 0 26 28"><defs><style>.a{fill:#9d9d9d;}</style></defs><path class="a" d="M26.841,27.105l-7.575-8.169A11.275,11.275,0,0,0,22.395,11.1,10.921,10.921,0,0,0,11.689,0,10.921,10.921,0,0,0,.983,11.1,10.921,10.921,0,0,0,11.689,22.2a10.43,10.43,0,0,0,6.823-2.554l7.594,8.189a.5.5,0,0,0,.721.015A.543.543,0,0,0,26.841,27.105ZM11.689,21.146A9.881,9.881,0,0,1,2,11.1,9.881,9.881,0,0,1,11.689,1.057,9.881,9.881,0,0,1,21.375,11.1,9.881,9.881,0,0,1,11.689,21.146Z" transform="translate(-0.983)"/></svg>