<svg xmlns="http://www.w3.org/2000/svg" width="14" height="15" viewBox="0 0 14 15"><defs><style>.a{fill:#2aafea;}</style></defs><g transform="translate(-1.328 0)"><path class="a" d="M8.328,15a6.91,6.91,0,0,1-7-6.8,6.909,6.909,0,0,1,7-6.8,7.134,7.134,0,0,1,.773.042V.35A.355.355,0,0,1,9.323.026a.375.375,0,0,1,.4.079L12.2,2.517a.342.342,0,0,1,0,.495L9.72,5.43a.374.374,0,0,1-.4.076A.355.355,0,0,1,9.1,5.183V3.964A4.445,4.445,0,0,0,3.893,8.2a4.378,4.378,0,0,0,4.435,4.306A4.378,4.378,0,0,0,12.762,8.2a.356.356,0,0,1,.362-.35h1.842a.357.357,0,0,1,.362.35A6.912,6.912,0,0,1,8.328,15Z" transform="translate(0 0)"/></g></svg>