<svg xmlns="http://www.w3.org/2000/svg" width="16" height="16" viewBox="0 0 16 16"><defs><style>.a{fill:#2aafea;}</style></defs><g transform="translate(0 -19.725)"><g transform="translate(0 19.725)"><g transform="translate(0 0)"><path class="a" d="M.73,35.952a.779.779,0,0,1-.73-.82V20.781a.779.779,0,0,1,.73-.82L12.6,27.342a.923.923,0,0,1,0,1.23C12.052,29.187.73,35.952.73,35.952Z" transform="translate(0 -19.952)"/><path class="a" d="M411.09,20.614a.915.915,0,0,1,.939-.889h1.017a.915.915,0,0,1,.939.889V34.836a.915.915,0,0,1-.939.889h-1.017a.915.915,0,0,1-.939-.889Z" transform="translate(-397.985 -19.725)"/></g></g></g></svg>