<svg xmlns="http://www.w3.org/2000/svg" width="15.219" height="13.316" viewBox="0 0 15.219 13.316"><defs><style>.a{fill:#2aafea;}</style></defs><g transform="translate(0 -32.012)"><g transform="translate(0 33.913)"><path class="a" d="M15.048,104.183l-2.854-2.378a.475.475,0,0,0-.78.365V103.6h-.8A1.893,1.893,0,0,1,9,102.7l-3.08-4.927A3.782,3.782,0,0,0,2.7,95.988H0v1.9H2.7a1.893,1.893,0,0,1,1.613.894l3.08,4.927a3.784,3.784,0,0,0,3.226,1.788h.8v1.427a.476.476,0,0,0,.274.431.482.482,0,0,0,.2.045.47.47,0,0,0,.3-.11l2.854-2.378a.475.475,0,0,0,0-.73Z" transform="translate(0 -95.988)"/></g><g transform="translate(7.219 32.012)"><path class="a" d="M250.708,34.5l-2.854-2.378a.476.476,0,0,0-.78.365v1.427h-.8a3.782,3.782,0,0,0-3.226,1.788l-.172.276L244,37.772l.664-1.062a1.893,1.893,0,0,1,1.613-.894h.8v1.427a.475.475,0,0,0,.274.431.482.482,0,0,0,.2.045.475.475,0,0,0,.3-.11l2.854-2.378a.475.475,0,0,0,0-.73Z" transform="translate(-242.88 -32.012)"/></g><g transform="translate(0 39.566)"><path class="a" d="M4.976,286.164l-.663,1.062a1.9,1.9,0,0,1-1.614.894H0v1.9H2.7a3.784,3.784,0,0,0,3.226-1.788l.172-.276Z" transform="translate(0 -286.164)"/></g></g></svg>