<svg xmlns="http://www.w3.org/2000/svg" width="16" height="16" viewBox="0 0 16 16"><defs><style>.a{fill:#2aafea;}</style></defs><g transform="translate(0 0)"><path class="a" d="M12.113,35.952a.779.779,0,0,0,.73-.82V20.781a.779.779,0,0,0-.73-.82L.243,27.342a.923.923,0,0,0,0,1.23C.791,29.187,12.113,35.952,12.113,35.952Z" transform="translate(3.156 -19.952)"/><path class="a" d="M413.985,20.614a.915.915,0,0,0-.939-.889h-1.017a.915.915,0,0,0-.939.889V34.836a.915.915,0,0,0,.939.889h1.017a.915.915,0,0,0,.939-.889Z" transform="translate(-411.09 -19.725)"/></g></svg>