<svg xmlns="http://www.w3.org/2000/svg" width="28" height="28" viewBox="0 0 28 28"><defs><style>.a{fill:#fff;}</style></defs><path class="a" d="M14,0A14,14,0,1,0,28,14,14.016,14.016,0,0,0,14,0Zm0,27.067A13.067,13.067,0,1,1,27.067,14,13.082,13.082,0,0,1,14,27.067Z"/><path class="a" d="M25.835,22a3.835,3.835,0,1,0,3.835,3.835A3.839,3.839,0,0,0,25.835,22Zm0,6.711a2.876,2.876,0,1,1,2.876-2.876A2.879,2.879,0,0,1,25.835,28.711Z" transform="translate(-11.835 -11.835)"/><path class="a" d="M22.711,16a6.711,6.711,0,1,0,6.711,6.711A6.718,6.718,0,0,0,22.711,16Zm0,12.463a5.752,5.752,0,1,1,5.752-5.752A5.758,5.758,0,0,1,22.711,28.463Z" transform="translate(-8.711 -8.711)"/></svg>