<svg xmlns="http://www.w3.org/2000/svg" width="20.95" height="23.291" viewBox="0 0 20.95 23.291"><defs><style>.a{fill:#2aafea;}</style></defs><g transform="translate(0 2)"><g transform="translate(0 -2)"><path class="a" d="M28.894,8.193a3.268,3.268,0,0,1,2.341.936l8.31-4.8a1.992,1.992,0,0,1-.117-.819,3.511,3.511,0,1,1,7.022,0,3.449,3.449,0,0,1-3.511,3.511A3.268,3.268,0,0,1,40.6,6.086l-8.31,4.8a1.992,1.992,0,0,1,.117.819,1.992,1.992,0,0,1-.117.819l8.31,4.916a3.268,3.268,0,0,1,2.341-.936A3.394,3.394,0,1,1,39.545,19.9a2.285,2.285,0,0,1,.117-.819l-8.31-4.916a3.268,3.268,0,0,1-2.341.936A3.449,3.449,0,0,1,25.5,11.587,3.257,3.257,0,0,1,28.894,8.193Z" transform="translate(-25.5)"/></g></g></svg>