<svg xmlns="http://www.w3.org/2000/svg" width="26.5" height="22.561" viewBox="0 0 26.5 22.561"><defs><style>.a{fill:#2aafea;}</style></defs><path class="a" d="M21.065,0H5.435C2.438,0,0,2.867,0,6.391v9.78c0,3.524,2.438,6.391,5.435,6.391H21.065c3,0,5.435-2.867,5.435-6.391V6.391C26.5,2.867,24.062,0,21.065,0Zm3.882,16.17c0,2.517-1.741,4.565-3.882,4.565H5.435c-2.14,0-3.882-2.048-3.882-4.565V6.391c0-2.517,1.741-4.565,3.882-4.565H21.065c2.14,0,3.882,2.048,3.882,4.565Zm0,0"/><path class="a" d="M198.67,117.316h-10.2a.776.776,0,0,0,0,1.553h10.2a.776.776,0,0,0,0-1.553Zm0,0" transform="translate(-177.977 -110.082)"/><path class="a" d="M97.972,118.869h2.367a.776.776,0,0,0,0-1.553H97.972a.776.776,0,0,0,0,1.553Zm0,0" transform="translate(-92.165 -110.082)"/><path class="a" d="M97.972,171.893h10.2a.776.776,0,0,0,0-1.553h-10.2a.776.776,0,0,0,0,1.553Zm0,0" transform="translate(-92.165 -159.836)"/><path class="a" d="M342.225,170.34h-2.367a.776.776,0,0,0,0,1.553h2.367a.776.776,0,1,0,0-1.553Zm0,0" transform="translate(-321.532 -159.836)"/><path class="a" d="M198.67,223.359h-10.2a.776.776,0,0,0,0,1.553h10.2a.776.776,0,0,0,0-1.553Zm0,0" transform="translate(-177.977 -209.586)"/><path class="a" d="M100.338,223.359H97.972a.776.776,0,0,0,0,1.553h2.367a.776.776,0,0,0,0-1.553Zm0,0" transform="translate(-92.165 -209.586)"/></svg>